<svg width="51" height="51" viewBox="0 0 51 51" fill="none" xmlns="http://www.w3.org/2000/svg">
<g clip-path="url(#clip0_99_4)">
<path d="M45.8076 3.42668C45.1043 5.10613 44.2121 6.70096 43.1376 8.1656C38.4359 3.46574 32.054 0.822876 25.4051 0.822876C11.6515 0.822876 0.333496 12.1494 0.333496 25.917C0.333496 32.7846 3.14673 39.3592 8.12198 44.0981L9.0467 44.9183C13.5661 48.7263 19.2903 50.8224 25.1967 50.8224C38.2731 50.8224 49.2655 40.5764 50.1967 27.5184C50.8805 21.126 49.005 13.0412 45.8076 3.42668ZM11.6841 44.2413C11.2804 44.7425 10.6617 45.0355 10.017 45.0355C8.83831 45.0355 7.87452 44.0655 7.87452 42.8873C7.87452 41.7091 8.84483 40.7392 10.017 40.7392C10.5054 40.7392 10.9873 40.9084 11.365 41.2209C12.2832 41.963 12.4265 43.3235 11.6841 44.2413ZM45.7034 36.7293C39.5169 44.9769 26.3038 42.1973 17.8315 42.5944C17.8315 42.5944 16.3272 42.6855 14.8164 42.9329C14.8164 42.9329 15.383 42.692 16.1189 42.4121C22.0644 40.3421 24.8776 39.9385 28.4919 38.0833C35.297 34.6202 42.024 27.0432 43.4241 19.1602C40.8323 26.7437 32.9787 33.2598 25.8219 35.9091C20.9183 37.7188 12.0618 39.4763 12.0618 39.4763L11.7036 39.2876C5.67343 36.3518 5.49109 23.2872 16.451 19.069C21.2504 17.2203 25.8414 18.2358 31.0251 16.999C36.5604 15.6841 42.9618 11.531 45.5666 6.11511C48.4841 14.7793 51.9941 28.3451 45.7034 36.7293Z" fill="#77BC1F"/>
</g>
<defs>
<clipPath id="clip0_99_4">
<rect width="50" height="50" fill="white" transform="translate(0.333496 0.819336)"/>
</clipPath>
</defs>
</svg>
